<?xml version="1.0" encoding="UTF-8"?>
<svg width="77px" height="49px" viewBox="0 0 77 49" version="1.1" xmlns="http://www.w3.org/2000/svg" xmlns:xlink="http://www.w3.org/1999/xlink">
    <!-- Generator: Sketch 54.1 (76490) - https://sketchapp.com -->
    <title>logo</title>
    <desc>Created with Sketch.</desc>
    <g id="muckup" stroke="none" stroke-width="1" fill="none" fill-rule="evenodd">
        <g id="week7-開啟畫面" transform="translate(-150.000000, -286.000000)" fill="#FFFFFF" fill-rule="nonzero">
            <path d="M174.755,306.33 C174.755,306.9 174.335,307.44 173.525,307.95 C172.685,308.49 171.605,308.94 170.255,309.33 C168.965,309.69 167.945,309.87 167.225,309.87 C165.185,309.87 163.625,309.06 162.545,307.5 C161.645,306.12 161.195,304.29 161.195,302.04 C161.195,298.83 161.975,295.74 163.565,292.74 C165.365,289.38 167.555,287.7 170.075,287.7 C170.705,287.7 171.425,287.94 172.205,288.42 C172.895,288.87 173.465,289.38 173.885,289.92 C174.305,290.46 174.545,290.94 174.545,291.36 C174.545,291.75 174.395,292.08 174.155,292.32 C173.855,292.59 173.525,292.71 173.165,292.71 C172.805,292.71 172.325,292.35 171.665,291.6 C171.005,290.88 170.345,290.49 169.685,290.49 C168.365,290.49 167.045,291.81 165.755,294.42 C164.465,297.06 163.835,299.7 163.835,302.31 C163.835,305.55 164.975,307.14 167.255,307.14 C168.695,307.14 170.375,306.6 172.265,305.49 C172.865,305.13 173.255,304.92 173.405,304.92 C173.705,304.92 174.005,305.07 174.305,305.37 C174.605,305.67 174.755,306 174.755,306.33 Z M189.035,309.24 C188.975,309.81 188.795,310.11 188.435,310.11 C187.175,310.11 186.515,308.7 186.395,305.82 L186.245,302.19 C183.545,304.2 181.805,305.91 181.025,307.32 C180.815,307.8 180.605,308.28 180.365,308.73 C180.005,309.39 179.735,309.72 179.495,309.72 C179.045,309.72 178.655,309.54 178.325,309.18 C178.025,308.79 177.875,308.37 177.875,307.95 L177.875,307.14 C177.845,306.69 177.845,306.36 177.845,306.18 C177.845,303.3 178.085,300.48 178.625,297.72 L180.365,288.15 C180.545,287.16 180.875,286.65 181.355,286.65 C181.745,286.65 182.075,286.86 182.345,287.28 C182.645,287.7 182.795,288.12 182.795,288.54 C182.795,288.69 182.705,289.17 182.555,290.01 C182.375,290.88 182.105,292.17 181.805,293.91 L180.905,298.62 C180.755,299.4 180.515,301.17 180.185,303.93 C180.845,303.12 181.985,302.07 183.665,300.78 C185.405,299.4 186.575,298.71 187.115,298.71 C187.565,298.71 187.925,298.92 188.225,299.28 C188.525,299.7 188.705,300.15 188.705,300.63 C188.705,300.72 188.645,301.14 188.585,301.89 C188.525,302.64 188.525,303.12 188.525,303.3 C188.525,304.56 188.615,305.88 188.795,307.29 C188.855,307.83 188.945,308.46 189.035,309.24 Z M202.985,302.04 C202.985,302.16 202.925,302.37 202.805,302.7 C202.385,303.96 202.205,305.16 202.205,306.36 C202.205,306.72 202.265,307.26 202.415,307.95 C202.535,308.67 202.625,309.03 202.625,309.12 C202.625,309.42 202.475,309.72 202.235,309.96 C201.965,310.14 201.665,310.26 201.365,310.26 C200.495,310.26 199.985,309.09 199.835,306.81 C198.155,308.49 196.655,309.33 195.305,309.33 C194.435,309.33 193.685,308.97 193.055,308.22 C192.395,307.5 192.095,306.69 192.095,305.76 C192.095,304.02 193.115,302.16 195.185,300.24 C197.165,298.38 198.965,297.42 200.615,297.42 C201.005,297.42 201.395,297.6 201.785,297.9 C202.145,298.2 202.355,298.56 202.355,298.92 C202.355,299.07 202.325,299.22 202.295,299.34 C202.475,299.88 202.595,300.48 202.595,301.17 C202.835,301.47 202.985,301.77 202.985,302.04 Z M200.255,301.17 C200.255,300.45 200.075,300.06 199.715,300.06 C199.145,300.06 198.155,300.75 196.775,302.07 C195.245,303.54 194.495,304.74 194.495,305.7 C194.495,306.45 194.795,306.81 195.425,306.81 C196.325,306.81 197.375,306.15 198.515,304.77 C199.655,303.39 200.255,302.19 200.255,301.17 Z M216.335,298.47 C216.335,298.83 216.215,299.16 216.005,299.46 C215.765,299.76 215.495,299.91 215.225,299.91 C214.805,299.91 214.415,299.79 214.115,299.49 C213.905,299.49 213.395,299.49 212.555,299.46 C211.715,299.46 211.175,299.43 210.875,299.43 C210.335,301.77 210.005,303.21 209.885,303.78 C209.525,305.46 209.345,306.99 209.285,308.31 C209.585,308.55 209.735,308.88 209.735,309.36 C209.735,309.66 209.585,309.93 209.315,310.2 C209.015,310.44 208.745,310.56 208.445,310.56 C207.455,310.56 206.975,309.72 206.975,308.1 C206.975,307.2 207.155,305.76 207.545,303.81 L208.445,299.49 C207.515,299.49 207.065,299.07 207.065,298.2 C207.065,297.66 207.245,297.3 207.605,297.12 C207.845,297 208.295,296.91 209.015,296.91 C209.795,293.73 210.455,291.27 210.995,289.47 C211.175,288.84 211.535,288.51 212.075,288.51 C212.855,288.51 213.275,288.96 213.365,289.86 C213.185,290.49 212.945,291.21 212.675,292.05 C212.315,293.28 211.925,294.87 211.505,296.85 C211.715,296.85 212.465,296.88 213.725,296.91 C215.465,297 216.335,297.51 216.335,298.47 Z M163.685,315.24 C163.685,317.22 162.395,319.41 159.875,321.87 C157.415,324.27 155.315,325.56 153.575,325.74 C153.575,326.04 153.575,326.58 153.605,327.39 L153.605,328.77 C153.725,329.04 153.815,329.34 153.875,329.7 L153.875,330.63 C153.875,331.05 153.965,331.95 154.205,333.27 C154.055,334.08 153.665,334.5 153.065,334.5 C152.405,334.5 151.985,333.84 151.745,332.58 C151.415,330.96 151.265,329.4 151.265,327.96 C151.265,325.92 151.445,323.04 151.805,319.35 C151.085,319.11 150.725,318.63 150.725,317.94 C150.725,317.46 151.175,316.77 152.075,315.87 C155.195,312.75 157.925,311.19 160.235,311.19 C161.225,311.19 162.065,311.61 162.725,312.39 C163.355,313.2 163.685,314.16 163.685,315.24 Z M161.285,314.85 C161.285,314.58 161.165,314.34 160.925,314.13 C160.685,313.89 160.385,313.77 160.085,313.77 C158.735,313.77 156.815,314.85 154.355,316.98 C154.235,317.79 154.055,319.86 153.785,323.16 C155.495,322.29 157.085,321.15 158.555,319.77 C160.355,318 161.285,316.35 161.285,314.85 Z M171.995,312.72 C171.995,313.29 171.665,313.71 171.065,314.01 L170.855,314.31 C169.955,317.76 169.505,321.21 169.505,324.66 C169.505,326.1 169.655,328.68 169.955,332.34 C169.955,332.46 169.955,332.64 170.015,332.91 C170.045,333.15 170.075,333.33 170.075,333.42 C170.075,333.57 169.955,333.72 169.775,333.87 C169.565,334.05 169.385,334.14 169.235,334.14 C168.635,334.14 168.125,333.69 167.705,332.82 C167.255,331.95 167.045,331.02 167.045,330 C167.045,329.07 167.135,328.41 167.345,328.05 C167.225,326.25 167.165,324.84 167.165,323.82 C167.165,319.86 167.735,316.02 168.905,312.3 C169.235,311.22 169.595,310.65 169.985,310.65 C170.345,310.65 170.765,310.92 171.245,311.4 C171.725,311.94 171.995,312.36 171.995,312.72 Z M185.015,326.04 C185.015,326.16 184.955,326.37 184.835,326.7 C184.415,327.96 184.235,329.16 184.235,330.36 C184.235,330.72 184.295,331.26 184.445,331.95 C184.565,332.67 184.655,333.03 184.655,333.12 C184.655,333.42 184.505,333.72 184.265,333.96 C183.995,334.14 183.695,334.26 183.395,334.26 C182.525,334.26 182.015,333.09 181.865,330.81 C180.185,332.49 178.685,333.33 177.335,333.33 C176.465,333.33 175.715,332.97 175.085,332.22 C174.425,331.5 174.125,330.69 174.125,329.76 C174.125,328.02 175.145,326.16 177.215,324.24 C179.195,322.38 180.995,321.42 182.645,321.42 C183.035,321.42 183.425,321.6 183.815,321.9 C184.175,322.2 184.385,322.56 184.385,322.92 C184.385,323.07 184.355,323.22 184.325,323.34 C184.505,323.88 184.625,324.48 184.625,325.17 C184.865,325.47 185.015,325.77 185.015,326.04 Z M182.285,325.17 C182.285,324.45 182.105,324.06 181.745,324.06 C181.175,324.06 180.185,324.75 178.805,326.07 C177.275,327.54 176.525,328.74 176.525,329.7 C176.525,330.45 176.825,330.81 177.455,330.81 C178.355,330.81 179.405,330.15 180.545,328.77 C181.685,327.39 182.285,326.19 182.285,325.17 Z M199.325,324.39 C199.325,325.77 199.085,328.59 198.605,332.82 C198.545,333.36 198.305,333.66 197.885,333.66 C197.435,333.66 197.075,333.48 196.775,333.12 C196.475,332.73 196.325,332.31 196.325,331.83 C196.325,331.8 196.385,331.23 196.505,330.12 L196.955,326.28 C194.465,328.17 192.725,329.94 191.705,331.62 C191.495,331.98 191.315,332.37 191.135,332.73 C190.835,333.21 190.535,333.48 190.235,333.48 C188.975,333.48 188.375,331.71 188.375,328.14 C188.375,325.8 188.705,323.43 189.365,321 C189.485,320.58 189.695,320.34 190.055,320.34 C190.505,320.34 190.895,320.52 191.195,320.85 C191.495,321.24 191.645,321.66 191.645,322.14 C191.495,322.74 191.345,323.4 191.195,324.12 C190.895,325.71 190.745,327.24 190.745,328.74 C192.875,326.16 195.155,324.18 197.585,322.83 C198.005,322.86 198.395,323.01 198.755,323.28 C199.115,323.58 199.325,323.94 199.325,324.39 Z M214.295,332.46 C214.295,333.42 213.275,333.93 211.265,333.93 C208.985,333.93 207.305,332.91 206.225,330.84 L205.325,330.84 C204.545,330.84 203.795,330.69 203.015,330.36 C201.995,329.94 201.515,329.4 201.515,328.74 C201.515,327.9 201.905,327.48 202.685,327.48 C202.865,327.48 203.165,327.63 203.585,327.93 C204.005,328.23 204.395,328.38 204.815,328.38 L205.505,328.38 C205.415,327.87 205.385,327.45 205.385,327.15 C205.385,325.71 205.745,324.36 206.465,323.1 C207.305,321.63 208.355,320.88 209.645,320.88 C210.395,320.88 211.115,321.24 211.835,321.96 C212.555,322.68 212.915,323.49 212.915,324.33 C212.915,326.55 211.415,328.47 208.415,330.09 C209.135,330.96 209.915,331.38 210.815,331.38 C211.055,331.38 211.445,331.35 211.955,331.29 C212.465,331.23 212.855,331.17 213.095,331.17 C213.395,331.17 213.695,331.32 213.935,331.56 C214.175,331.86 214.295,332.16 214.295,332.46 Z M210.545,324.45 C210.545,324.21 210.425,324 210.245,323.76 C210.005,323.58 209.765,323.46 209.525,323.46 C208.985,323.46 208.565,323.91 208.265,324.81 C207.965,325.56 207.845,326.34 207.845,327.15 L207.845,327.69 C209.645,326.52 210.545,325.44 210.545,324.45 Z M226.805,322.47 C226.805,322.83 226.685,323.16 226.475,323.46 C226.235,323.76 225.965,323.91 225.695,323.91 C225.275,323.91 224.885,323.79 224.585,323.49 C224.375,323.49 223.865,323.49 223.025,323.46 C222.185,323.46 221.645,323.43 221.345,323.43 C220.805,325.77 220.475,327.21 220.355,327.78 C219.995,329.46 219.815,330.99 219.755,332.31 C220.055,332.55 220.205,332.88 220.205,333.36 C220.205,333.66 220.055,333.93 219.785,334.2 C219.485,334.44 219.215,334.56 218.915,334.56 C217.925,334.56 217.445,333.72 217.445,332.1 C217.445,331.2 217.625,329.76 218.015,327.81 L218.915,323.49 C217.985,323.49 217.535,323.07 217.535,322.2 C217.535,321.66 217.715,321.3 218.075,321.12 C218.315,321 218.765,320.91 219.485,320.91 C220.265,317.73 220.925,315.27 221.465,313.47 C221.645,312.84 222.005,312.51 222.545,312.51 C223.325,312.51 223.745,312.96 223.835,313.86 C223.655,314.49 223.415,315.21 223.145,316.05 C222.785,317.28 222.395,318.87 221.975,320.85 C222.185,320.85 222.935,320.88 224.195,320.91 C225.935,321 226.805,321.51 226.805,322.47 Z" id="logo"></path>
        </g>
    </g>
</svg>